<svg width="50" height="30" viewBox="0 0 50 30" fill="none" xmlns="http://www.w3.org/2000/svg">
<path d="M24.5835 0.0716528L0.701464 9.51337C0.290694 9.67621 0 10.1041 0 10.5461C0 10.9879 0.290694 11.4159 0.701464 11.5787L8.89354 14.8243V23.3288C8.89354 24.4426 9.58718 25.2821 10.473 26.019C11.3587 26.7559 12.5289 27.4174 13.9615 27.9976C16.8267 29.1581 20.7023 29.9936 25 29.9936C29.2977 29.9936 33.1733 29.1581 36.0385 27.9976C37.4711 27.4174 38.6413 26.7559 39.527 26.019C40.4128 25.2821 41.1065 24.4426 41.1065 23.3288V14.8243L49.2985 11.5787C49.7093 11.4159 50 10.9879 50 10.5461C50 10.1041 49.7093 9.67621 49.2985 9.51337L25.4165 0.0716528C25.0698 -0.0503675 24.8479 0.00678265 24.5835 0.0716528ZM25 2.29323L45.862 10.5547L25 18.7988L4.13797 10.5547L25 2.29323ZM11.1151 15.6921L24.5835 21.0204C24.8473 21.1272 25.1527 21.1272 25.4165 21.0204L38.8849 15.6921V23.3288C38.8849 23.3777 38.7317 23.7957 38.1039 24.3181C37.476 24.8405 36.4659 25.432 35.1881 25.9496C32.6322 26.9848 29.0099 27.772 25 27.772C20.9901 27.772 17.3678 26.9848 14.8119 25.9496C13.5341 25.432 12.524 24.8405 11.8961 24.3181C11.2682 23.7957 11.1151 23.3775 11.1151 23.3288V15.6921Z" fill="#01286D"/>
</svg>
