<svg width="21" height="22" viewBox="0 0 21 22" fill="none" xmlns="http://www.w3.org/2000/svg">
<path fill-rule="evenodd" clip-rule="evenodd" d="M10.4242 0.154663C7.73019 0.154663 5.27715 1.24706 3.44456 3.03198C3.43141 3.04173 3.41891 3.05241 3.40714 3.06394C3.40381 3.06845 3.40057 3.07304 3.39744 3.07771C1.40177 5.04582 0.154297 7.84118 0.154297 10.9392C0.154297 14.0357 1.40067 16.8283 3.39466 18.7955C3.39865 18.8017 3.40281 18.8078 3.40714 18.8137C3.4223 18.8292 3.43877 18.8433 3.45634 18.8558C5.28764 20.6332 7.736 21.7208 10.4242 21.7208C13.1352 21.7208 15.6016 20.615 17.4379 18.8108C17.4383 18.81 17.4388 18.8093 17.4392 18.8085C19.4411 16.8406 20.6934 14.0426 20.6934 10.9391C20.6934 7.83852 19.444 5.04092 17.4455 3.07258C17.4429 3.06964 17.4404 3.06673 17.4378 3.06387C17.4324 3.05885 17.4269 3.05401 17.4212 3.04935C15.5867 1.25412 13.1271 0.154663 10.4242 0.154663ZM10.1595 0.91793V5.73283C9.02621 5.69986 7.91639 5.4558 6.87896 5.0204C7.02878 4.56076 7.19455 4.13108 7.37513 3.73642C8.14096 2.06274 9.1358 1.06543 10.1595 0.91793ZM10.8691 0.952796C11.8287 1.1853 12.7519 2.16131 13.4727 3.73643C13.6532 4.13108 13.8192 4.56077 13.9688 5.02041C12.9866 5.43261 11.9396 5.67383 10.8691 5.7263V0.952796ZM8.22888 1.16413C7.65563 1.728 7.15163 2.50149 6.73343 3.41543C6.5484 3.81981 6.37907 4.25469 6.22617 4.71538C5.50122 4.34303 4.81964 3.87423 4.19921 3.31521C5.34013 2.28689 6.71489 1.53706 8.22888 1.16413ZM12.6175 1.16413C14.132 1.53695 15.5073 2.2866 16.6486 3.31522C16.0275 3.87477 15.3453 4.34433 14.6195 4.71684C14.4665 4.25562 14.2968 3.82024 14.1116 3.41544C13.6934 2.5015 13.1902 1.72801 12.6175 1.16413ZM17.1725 3.82358C18.8317 5.55949 19.8849 7.93272 19.9763 10.5659H15.5384C15.509 8.6954 15.2599 6.94627 14.8385 5.4329C15.6769 5.01356 16.4628 4.47359 17.1725 3.82358ZM3.67463 3.82583C4.38386 4.47499 5.1692 5.01404 6.00719 5.43297C5.58576 6.94634 5.33669 8.69547 5.30729 10.566H0.87153C0.962874 7.93369 2.0164 5.56157 3.67463 3.82583ZM14.1802 5.73363C14.5644 7.15112 14.7997 8.80063 14.8288 10.566H10.8691V6.47076C12.0119 6.41867 13.1302 6.16715 14.1802 5.73363ZM6.66691 5.73436C7.77276 6.19065 8.95395 6.44469 10.1595 6.47729V10.566H6.01689C6.04614 8.80097 6.28212 7.15166 6.66691 5.73436ZM0.87153 11.3096H5.30729C5.33653 13.1809 5.5856 14.9308 6.00719 16.4448C5.16936 16.8637 4.38445 17.4029 3.67532 18.0519C2.01598 16.3162 0.962313 13.9434 0.87153 11.3096ZM6.01689 11.3096H10.1595V15.4005C8.95417 15.4331 7.77328 15.6873 6.6676 16.1434C6.28232 14.7258 6.046 13.0761 6.01689 11.3096ZM10.8691 11.3096H14.8288C14.7998 13.0765 14.5642 14.7264 14.1795 16.1441C13.1297 15.7108 12.0115 15.4591 10.8691 15.407V11.3096ZM15.5384 11.3096H19.9763C19.8855 13.9441 18.8319 16.3175 17.1718 18.0534C16.4623 17.4038 15.6766 16.864 14.8385 16.4448C15.2601 14.9308 15.5092 13.1809 15.5384 11.3096ZM10.1595 16.1449V20.9569C9.1358 20.8093 8.14096 19.812 7.37513 18.1383C7.19464 17.7438 7.02872 17.3149 6.87896 16.8558C7.91639 16.421 9.02621 16.1777 10.1595 16.1449ZM10.8691 16.1515C11.9397 16.2038 12.9862 16.4447 13.9681 16.8566C13.8186 17.3155 13.653 17.7442 13.4727 18.1384C12.7519 19.7135 11.8287 20.6895 10.8691 20.9221V16.1515ZM6.22548 17.16C6.37859 17.6217 6.54806 18.057 6.73343 18.4622C7.15128 19.3754 7.65483 20.1475 8.2275 20.7106C6.71406 20.3377 5.33977 19.5878 4.19921 18.5602C4.81948 18.0014 5.50073 17.5319 6.22548 17.16ZM14.6202 17.16C15.3451 17.5321 16.0266 18.0018 16.6472 18.5609C15.5063 19.5885 14.132 20.3388 12.6182 20.7113C13.1906 20.1481 13.6936 19.3757 14.1116 18.4622C14.297 18.057 14.4671 17.6218 14.6202 17.16Z" fill="#FD550A" stroke="#FD550A" stroke-width="0.309329"/>
</svg>
